<svg version="1.1" id="Layer_1" xmlns="http://www.w3.org/2000/svg" xmlns:xlink="http://www.w3.org/1999/xlink" x="0px" y="0px"
	 width="100%" viewBox="0 0 1024 1008" enable-background="new 0 0 1024 1008" xml:space="preserve">
<path fill="#000000" opacity="1.000000" stroke="none" 
	d="
M589.656372,672.405396 
	C589.431824,669.878113 588.227173,668.677979 586.175659,668.323425 
	C570.951050,665.691833 560.588257,656.283203 552.228821,644.046631 
	C551.308960,642.700134 550.674866,641.083496 549.048340,640.212219 
	C547.002991,640.971619 547.742737,642.477844 548.015137,643.907532 
	C551.260559,660.942261 556.095947,677.493958 561.988220,693.821899 
	C569.943481,715.866455 578.352295,737.809082 582.729431,760.977905 
	C583.185608,763.392334 583.629211,765.738647 582.308167,769.504517 
	C579.462952,763.041321 573.187256,762.663879 569.421631,758.662720 
	C567.011597,756.101807 563.558411,755.780945 560.092957,756.246521 
	C545.583984,758.195862 534.616516,749.321716 533.837097,734.547607 
	C533.588013,729.825317 532.127747,727.888611 527.286011,728.307678 
	C523.625854,728.624390 521.126648,726.307678 518.962402,723.072937 
	C526.174255,717.704346 528.039124,709.871460 528.176575,701.592712 
	C528.368103,690.053833 522.486938,680.735535 516.498901,671.176147 
	C515.609131,671.810913 514.754639,672.090027 514.644531,672.548157 
	C512.665161,680.780090 509.625153,688.851501 509.331787,697.370178 
	C508.431976,723.498657 506.819183,749.561707 504.624573,775.622314 
	C503.218170,792.322754 502.616272,809.114746 501.467529,825.860413 
	C500.502655,839.925781 498.877258,853.859253 496.656097,867.754883 
	C496.277618,870.122803 495.603821,872.223755 493.894165,874.010315 
	C491.845764,876.150696 491.345062,878.868469 490.984436,881.773438 
	C490.428192,886.254150 488.292358,886.768555 482.175446,885.468262 
	C477.593506,884.494263 478.883392,882.116272 479.774597,879.227478 
	C482.969208,868.872070 485.122650,858.289734 485.622864,847.445679 
	C485.869507,842.099182 487.706757,837.061707 487.982056,831.685181 
	C488.337860,824.735962 489.906006,817.857361 490.485901,810.909485 
	C492.422241,787.708984 494.158264,764.491699 495.942200,741.278625 
	C496.065063,739.679565 496.366760,738.010559 495.568817,736.480530 
	C493.533234,736.433411 493.450806,738.064819 492.888733,739.138489 
	C480.394470,763.004272 464.798950,784.410645 443.486328,801.243286 
	C441.334351,802.942932 440.880402,804.948303 441.054321,807.373474 
	C441.803741,817.824280 442.593872,828.272339 443.296844,838.726257 
	C443.483368,841.499695 445.098175,843.040100 447.489258,843.696411 
	C457.430420,846.424805 464.786957,853.377075 472.806610,859.185120 
	C476.928925,862.170593 474.837524,866.441589 473.949066,870.262085 
	C473.547028,871.990723 471.921753,873.548523 472.899475,875.458130 
	C478.345917,886.095642 471.573914,892.841858 465.004852,899.328430 
	C459.990662,904.279602 453.917511,907.868896 446.976624,909.653259 
	C442.978668,910.681091 440.983734,912.441589 443.626190,916.644897 
	C444.223480,917.595032 444.551666,918.831543 444.640839,919.964783 
	C445.196991,927.033997 446.021820,934.112549 445.997681,941.185425 
	C445.983246,945.422424 443.610809,949.232971 440.210510,951.889526 
	C430.539398,959.444824 420.024353,965.367249 407.768127,967.649292 
	C406.959045,967.799988 406.134644,968.078735 405.396973,967.434387 
	C408.171417,960.310303 407.956055,959.955322 400.330017,959.078857 
	C392.470398,958.175537 392.470398,958.175476 389.904999,965.212402 
	C385.585327,963.772461 383.014465,960.068726 383.914612,954.312805 
	C384.708588,949.236206 381.695862,946.201904 379.527557,942.609253 
	C378.625214,941.114014 376.666046,940.778503 375.607422,941.964905 
	C373.300903,944.549805 370.095978,946.541931 368.991119,950.145691 
	C371.435608,951.676758 373.824127,948.677856 376.371796,951.223083 
	C372.770050,955.527466 368.457367,958.629700 362.783081,959.140869 
	C357.701660,959.598633 354.808289,956.125610 352.915436,952.025757 
	C346.353271,937.812744 346.257721,923.193909 350.531982,908.348022 
	C351.067108,906.489441 352.348480,904.723328 351.570984,902.530212 
	C349.644348,902.030090 348.950562,903.690796 348.137726,904.710205 
	C341.969635,912.446167 334.385101,918.927307 330.656830,928.764221 
	C328.715485,933.886353 323.732117,937.983704 320.581818,942.887634 
	C319.971344,943.837830 318.877106,944.532166 319.151398,945.941528 
	C320.725586,947.120850 322.168091,944.441101 324.248413,946.165344 
	C322.042572,950.347961 318.759979,953.420654 314.767365,955.888306 
	C312.804291,953.751953 315.320801,952.002136 314.055389,949.809265 
	C308.871613,950.763855 301.911804,947.317200 299.775757,957.107239 
	C295.407440,952.472778 294.112091,947.649658 293.821411,942.519775 
	C293.605194,938.703064 294.061981,934.924805 290.229309,932.246948 
	C288.780609,931.234741 288.213959,928.745117 289.573425,927.241272 
	C293.518311,922.877502 292.996582,916.915833 296.245331,911.107788 
	C293.662018,913.135315 293.329773,915.119629 292.687836,916.806213 
	C289.282837,925.752319 281.929535,931.875000 276.553070,939.397644 
	C271.107635,947.017029 261.385223,947.389465 253.695801,951.242310 
	C251.770126,952.207092 249.629791,952.696899 248.621643,955.631348 
	C253.116806,958.285034 257.202271,956.251099 261.258759,954.890442 
	C268.763550,952.373352 274.507385,946.796753 281.383270,943.171875 
	C282.706360,942.474365 283.908234,941.642456 285.436035,941.588135 
	C285.565308,942.013733 285.819153,942.457458 285.716522,942.567078 
	C276.707123,952.178162 267.173340,960.463379 252.836380,961.083618 
	C241.825027,961.559998 228.266235,951.350647 226.572311,940.538452 
	C225.520752,933.826477 224.121033,927.119446 223.738113,920.361511 
	C222.588760,900.077576 230.965591,883.065613 243.200867,867.719543 
	C248.275299,861.354919 254.087387,855.574829 260.694031,850.657471 
	C265.151154,847.339905 269.543762,845.850769 275.027039,848.343567 
	C279.775177,850.502258 281.757568,848.840515 280.945190,843.492920 
	C279.133179,831.565613 275.675110,820.300964 271.010040,809.212585 
	C269.144684,804.778748 268.519531,799.678528 268.464203,794.605225 
	C268.430878,791.552979 267.116425,788.464600 266.111389,785.482178 
	C262.614136,775.104065 258.594635,764.881531 255.578934,754.368896 
	C253.676834,747.738281 254.165680,740.605530 252.095490,733.822327 
	C249.066513,723.897522 244.351028,714.690186 240.826401,704.993408 
	C238.703201,699.152161 237.125534,693.225769 237.628448,686.947205 
	C237.839600,684.311340 237.123062,682.055664 235.659851,679.906189 
	C227.873795,668.468140 225.578125,655.432068 224.822403,641.990601 
	C224.607544,638.169373 224.758179,634.326172 224.782593,630.493286 
	C224.809189,626.315735 224.626663,622.616333 221.089539,619.177002 
	C217.971039,616.144775 217.501816,611.276855 218.712967,606.906616 
	C221.341843,597.420837 217.270584,589.028870 214.492126,580.275330 
	C212.458389,589.228638 213.411514,598.354065 212.731964,607.354980 
	C212.026947,616.693298 213.245483,625.986572 213.315948,635.310303 
	C213.387619,644.793884 213.864243,654.292419 214.621262,663.747803 
	C215.363632,673.020264 216.726364,682.236694 217.997025,691.461975 
	C219.260849,700.637695 222.118851,709.517151 223.114792,719.305359 
	C220.298813,718.206909 220.261612,716.080078 219.868591,714.323120 
	C210.235474,671.261292 208.676910,627.565796 210.126160,583.697998 
	C210.576508,570.066162 212.011841,556.492981 208.700348,543.023987 
	C208.227097,541.099060 208.164368,539.044067 205.309464,536.945129 
	C188.795517,556.955383 177.181793,580.011780 164.783951,602.558044 
	C164.291245,602.467407 163.798523,602.376709 163.305801,602.286072 
	C163.554581,598.168579 163.685181,594.039917 164.072250,589.935486 
	C165.899796,570.556641 167.851257,551.189270 169.610046,531.804382 
	C169.862732,529.019165 170.554108,526.513794 172.233368,524.409790 
	C174.881973,521.091248 176.943832,517.468567 177.846786,513.364136 
	C180.157059,502.862854 187.791031,494.998138 191.561356,485.217010 
	C192.621307,482.467224 195.559326,481.269348 198.123199,480.090790 
	C203.972321,477.402008 206.493530,472.395294 206.692825,466.506897 
	C207.132004,453.531433 207.003876,440.537323 207.183411,427.551849 
	C207.205994,425.919281 207.367722,424.152679 208.011353,422.688324 
	C210.716385,416.533936 210.176086,410.707306 206.752914,405.036987 
	C205.756287,403.386139 204.014038,401.878876 205.837006,399.716858 
	C207.598129,397.628174 208.745834,394.624329 212.496506,395.820892 
	C213.559006,396.159882 214.820602,396.238953 216.186188,394.805695 
	C212.633728,391.380798 208.945892,393.849731 204.836929,395.178650 
	C206.081726,390.260406 209.069000,389.372223 212.467422,389.398407 
	C215.771378,389.423889 218.646423,390.910309 220.997620,393.122040 
	C226.855865,398.632782 231.071014,404.640259 233.031784,413.090210 
	C234.867599,421.001709 237.735321,428.991486 240.946136,436.668579 
	C241.605850,438.245911 242.952362,439.768127 242.137985,441.923920 
	C238.934189,440.343475 239.445023,434.923157 235.767059,434.945953 
	C232.619583,434.965454 229.521606,437.008881 226.331009,437.905579 
	C223.733261,438.635681 221.071777,438.488708 218.453033,437.617859 
	C217.174484,437.192749 215.757187,437.040314 214.843979,438.408081 
	C213.964386,439.725494 214.621689,440.970367 215.253281,442.158234 
	C217.459274,446.307098 221.822235,447.316071 226.337372,449.144287 
	C223.374374,450.953796 221.307068,449.652679 219.307816,448.832703 
	C214.504898,446.862915 213.582413,447.370453 213.360016,452.606812 
	C212.998795,461.112091 213.468994,469.594635 214.458008,478.038086 
	C216.004196,491.238098 217.325760,504.478546 219.385422,517.600952 
	C222.201401,535.542114 227.188797,552.723816 239.972000,566.549622 
	C240.623474,567.254211 241.410706,567.977173 240.949493,569.424805 
	C237.551773,569.410461 236.691559,564.927490 233.523392,564.726929 
	C231.706757,566.481506 233.029297,568.094360 233.496780,569.508057 
	C235.011810,574.089539 236.682129,578.625916 238.467438,583.110046 
	C240.235718,587.551514 242.260315,587.874817 245.105728,584.028809 
	C254.731079,571.018555 266.507843,560.445984 279.948120,551.431885 
	C320.518707,524.222168 373.588898,526.962708 410.949097,558.448730 
	C422.132996,567.874207 432.040710,578.309204 438.593353,591.582581 
	C439.222321,592.856628 439.670746,594.690735 441.594849,594.444031 
	C443.373230,594.215942 443.740021,592.463501 444.146881,591.064087 
	C444.748901,588.993408 445.134888,586.859009 445.588470,584.746460 
	C446.139099,582.181763 445.779572,580.118652 442.518158,580.005371 
	C443.129822,577.020325 445.224243,575.422180 446.683899,573.467407 
	C458.713470,557.357361 463.899994,538.739807 466.632660,519.242310 
	C469.333649,499.970703 471.497650,480.634155 472.741486,461.210144 
	C472.980072,457.484192 474.635559,453.738586 473.063568,449.937531 
	C470.838776,449.704742 469.664124,452.233124 467.019592,451.683594 
	C468.525635,448.374542 473.292877,446.876404 472.260559,441.910889 
	C463.896820,442.484283 456.161316,439.600952 448.070465,437.208710 
	C449.024811,432.712524 451.815979,428.517395 453.752411,423.985107 
	C456.031158,418.651611 458.800293,413.536682 461.206543,408.258911 
	C464.502350,401.030090 471.133148,396.786316 479.197906,395.384583 
	C480.685181,395.126068 482.229584,395.006195 482.785645,397.412506 
	C479.152496,399.209930 474.225739,398.134430 471.095581,401.945862 
	C473.827637,403.540680 476.466644,403.716614 479.086884,403.787170 
	C481.968903,403.864777 483.344299,405.349579 483.548889,408.091125 
	C483.685028,409.915375 484.376984,412.003113 483.747467,413.530945 
	C479.031494,424.976959 485.083252,436.313110 483.885315,447.722870 
	C483.422302,452.132660 483.129517,456.465332 482.343689,460.894348 
	C480.681763,470.260925 479.675842,479.972961 483.185486,489.362152 
	C484.425110,492.678467 486.856628,494.826111 489.788422,496.570343 
	C499.111908,502.117218 508.039734,508.173767 515.249084,516.434570 
	C518.143494,519.751099 519.790894,524.129639 524.555115,525.817444 
	C529.369629,527.523010 532.785339,526.688660 534.669556,521.893066 
	C539.689331,509.117218 545.083435,496.431915 549.028992,483.319519 
	C550.522888,478.354950 550.988708,472.696503 551.833618,467.345154 
	C552.936768,460.358551 554.577698,453.456482 556.003784,446.521454 
	C557.162354,440.887177 558.251160,434.980225 558.466064,429.504486 
	C558.845276,419.842743 560.450012,410.429749 561.892883,401.006348 
	C563.057251,393.401855 566.057922,386.138855 568.660278,378.822266 
	C573.641235,364.817993 580.816040,352.139526 591.190796,341.650574 
	C599.080444,333.673950 608.581665,328.635529 620.414368,327.157227 
	C627.401855,326.284302 634.330383,325.012512 641.452148,324.717316 
	C653.658325,324.211395 664.824768,328.031921 676.021545,332.010773 
	C695.639709,338.982178 712.257507,350.512360 726.774475,365.268372 
	C734.762146,373.387543 737.547119,388.300934 733.259094,398.708832 
	C729.681702,407.392029 735.033936,414.069489 742.376465,412.802490 
	C749.727600,411.533966 756.351807,415.143677 763.376343,416.112549 
	C765.014526,416.338501 767.223328,417.561157 767.877563,418.938782 
	C771.614136,426.807281 778.455200,426.594269 785.736023,427.420349 
	C797.050659,428.704132 807.502197,423.633362 818.776245,424.612061 
	C829.859253,425.574127 841.092041,424.728699 852.255554,424.901733 
	C855.278992,424.948547 857.813904,423.549622 860.291626,422.538940 
	C867.217163,419.714081 875.209534,420.756836 881.637512,416.369904 
	C882.278564,415.932434 883.215759,415.754517 884.016541,415.751862 
	C895.681641,415.712982 907.363220,415.349426 919.006592,415.853638 
	C927.013733,416.200378 930.738586,421.730713 932.489380,429.797638 
	C934.883362,440.827759 935.740234,451.957031 934.547241,462.931580 
	C933.450256,473.022552 932.691833,484.434784 921.770996,489.855774 
	C915.371704,493.032349 908.059204,491.867126 901.254456,490.356934 
	C893.497009,488.635284 885.850708,488.259613 878.199463,490.390686 
	C876.504761,490.862701 875.014282,490.943878 873.341675,490.626465 
	C870.803772,490.144958 867.642944,488.664276 865.999329,491.449005 
	C864.293335,494.339386 868.390320,495.256622 869.363586,497.578735 
	C867.789795,500.321960 866.241577,500.148651 863.940186,498.097870 
	C860.934753,495.419556 858.253418,496.452606 858.626709,500.434875 
	C859.206238,506.616760 855.367065,510.620148 852.753418,515.246643 
	C850.993591,518.361511 848.728210,521.184631 843.588440,518.409851 
	C844.946106,528.245911 834.720947,528.453918 831.842102,534.671753 
	C831.161621,536.141602 829.264404,537.263794 829.062073,538.705261 
	C827.387695,550.634949 821.152222,561.886780 823.535400,574.401855 
	C824.555359,579.758118 820.251099,583.927795 820.560852,589.138306 
	C820.633911,590.367371 818.973511,590.625122 817.732544,590.506714 
	C816.403015,590.379883 815.463440,590.878479 815.011169,592.169373 
	C812.443787,599.498779 805.151245,596.898071 800.161743,599.117798 
	C798.974670,599.645874 798.278198,598.017090 798.069336,596.832947 
	C797.696472,594.718933 797.000244,592.653259 797.546570,590.423462 
	C800.308838,579.149414 801.588196,567.593140 804.091003,556.238647 
	C805.882202,548.112732 807.189453,539.601074 807.744690,531.209900 
	C808.391724,521.431335 810.531311,512.112122 815.185852,503.713165 
	C818.298279,498.096893 818.352478,492.731567 816.403381,487.436829 
	C814.063721,481.081055 807.412292,480.754883 801.895630,479.419189 
	C795.536438,477.879578 789.569092,481.061096 783.363770,481.656036 
	C782.056519,481.781342 781.500366,482.982239 780.938293,483.986450 
	C780.030701,485.608002 779.109253,487.148224 776.673706,487.269806 
	C775.005249,484.598236 777.166077,482.899170 778.524902,481.370392 
	C781.444519,478.085541 783.732422,474.451996 785.486755,470.470703 
	C786.289185,468.649536 787.033203,466.711151 786.447327,464.662354 
	C785.980286,463.029236 785.171204,461.391174 783.439453,460.931793 
	C781.636841,460.453583 780.988953,462.206451 780.040222,463.323212 
	C775.840576,468.267029 771.604431,473.179840 767.375793,478.098938 
	C766.798828,478.770172 766.103210,479.148010 764.888000,478.721497 
	C764.497986,475.562744 766.987854,473.788849 768.713196,471.848511 
	C772.472534,467.620697 776.628357,463.750916 779.744141,458.961426 
	C781.719055,455.925537 782.893799,452.938690 781.743835,449.142548 
	C780.443665,444.850220 778.285706,443.870850 775.156494,447.026917 
	C770.468445,451.755035 765.965271,456.672699 761.521362,461.633331 
	C759.843201,463.506531 758.210693,465.374939 756.090515,466.746033 
	C754.994202,467.455017 753.857422,468.542389 752.475525,467.628326 
	C750.886841,466.577484 751.397766,464.906067 751.856567,463.530457 
	C753.700012,458.002930 755.496765,452.432953 758.444702,447.368683 
	C760.872070,443.198700 763.458496,439.116821 766.094910,435.074493 
	C767.814087,432.438599 768.771423,429.996216 765.689270,427.691681 
	C762.546326,425.341614 759.999817,426.013916 757.444153,428.866760 
	C750.365723,436.768341 745.813171,446.299683 740.244446,455.168060 
	C737.583679,459.405396 734.841248,463.498718 731.645935,467.387451 
	C726.210938,474.002045 724.841064,482.446503 722.464600,490.403503 
	C718.921143,502.267944 720.652588,513.983093 722.432251,525.951050 
	C724.066406,536.940430 728.789795,546.512390 733.499695,556.139343 
	C735.052734,559.313904 738.282349,561.895996 741.980713,563.471375 
	C753.826172,568.517090 756.805298,576.313782 751.463013,587.952637 
	C749.940002,591.270752 748.579529,594.709656 746.048035,597.472717 
	C743.846802,599.875244 742.250977,599.959839 740.276184,596.894592 
	C734.716614,588.265137 732.617798,578.757874 731.604980,568.701172 
	C730.856262,561.265991 728.779968,554.000183 725.703491,547.107788 
	C725.043945,545.630371 724.739441,543.892151 722.507690,542.703613 
	C719.362915,549.209900 722.323486,555.344849 723.387146,561.380066 
	C724.478149,567.570740 727.982300,573.021667 730.696167,580.491211 
	C725.372009,577.648499 721.006897,577.562134 715.999084,579.717529 
	C712.931274,555.666199 712.325439,532.219482 707.588623,508.614777 
	C702.771912,510.821594 697.536438,512.081116 692.304138,510.641296 
	C686.224487,525.827820 683.049866,541.408875 678.115479,557.191345 
	C673.270935,555.942078 668.602661,552.090881 663.056641,551.617249 
	C662.084534,553.046875 662.693115,553.949585 663.470886,554.545349 
	C675.192993,563.525085 681.571045,576.601379 689.405701,588.522583 
	C698.916016,602.993469 707.556824,618.032532 718.032959,631.872620 
	C722.226746,637.413086 725.014221,643.608582 725.328369,650.682068 
	C725.503052,654.615540 728.994690,655.565430 731.337524,657.470459 
	C733.226379,659.006470 735.483704,660.089355 738.419861,661.889709 
	C737.455322,651.565369 740.818420,641.655029 733.714966,633.122375 
	C731.253845,630.166016 730.627014,627.149414 735.764771,625.843750 
	C738.454468,625.160217 739.038208,621.919006 741.380615,620.046143 
	C743.181274,623.797668 743.076477,627.386353 742.786621,630.987305 
	C742.292664,637.123962 741.757629,643.257263 741.238770,649.391907 
	C740.382263,659.517578 742.580688,668.912781 747.931519,677.568665 
	C748.629028,678.696960 749.234985,679.891602 749.767151,681.106384 
	C749.929565,681.477173 749.703003,682.018311 749.619690,682.815552 
	C746.711853,682.380432 745.576355,679.952759 745.051086,678.091614 
	C742.213989,668.038696 734.509155,662.823364 726.495789,657.248535 
	C710.918579,646.411499 695.889526,634.783997 680.681580,623.419617 
	C674.538452,618.829041 668.372925,614.298401 661.751465,610.395813 
	C650.803528,603.943054 643.354126,593.624573 634.129272,585.273071 
	C620.736755,573.148438 606.506165,562.198853 587.656982,559.689209 
	C583.353333,559.116211 579.403442,560.078552 575.334839,560.858032 
	C574.140747,561.086853 572.889282,562.182678 571.038269,559.887756 
	C582.282349,554.738159 592.924194,556.383545 603.928406,559.530579 
	C599.639954,557.833008 595.456665,555.757996 591.038208,554.527100 
	C584.557190,552.721558 577.781189,552.827209 571.175476,553.567261 
	C563.380859,554.440491 558.415283,560.038391 554.667603,566.166565 
	C545.157043,581.718262 542.725891,598.604797 545.676086,616.609192 
	C548.283936,632.524292 554.383606,646.348083 567.218811,656.453369 
	C575.069519,662.634277 583.684937,667.272400 594.386841,664.716736 
	C597.896606,663.878601 600.844971,662.155273 603.641052,659.995056 
	C606.262085,657.969971 605.949219,656.276489 603.264404,654.639771 
	C597.550537,651.156555 591.463928,648.472717 585.260437,646.005005 
	C583.502747,645.305786 581.330078,645.042175 580.325623,642.573425 
	C582.376282,641.088440 584.136902,642.515381 585.775330,643.149292 
	C597.152771,647.550964 607.832825,653.389771 618.220398,659.698242 
	C632.313110,668.256836 646.113892,677.294495 660.147095,685.953064 
	C675.341431,695.328247 691.364380,703.102478 707.821045,709.997192 
	C709.171387,710.562927 710.748047,710.835266 711.429321,712.656616 
	C709.964783,714.876587 708.232727,714.059326 706.368225,713.139404 
	C684.417236,702.309814 662.184326,692.058472 642.111877,677.738281 
	C633.455933,671.562927 623.934204,666.610291 614.907837,660.939697 
	C611.976562,659.098206 609.627075,658.885498 606.817627,661.227905 
	C603.753296,663.782837 600.324463,666.025818 596.447266,667.127319 
	C592.759094,668.175171 591.708923,670.477722 592.323364,673.880615 
	C596.896667,699.208801 596.459290,725.268311 603.595215,750.235779 
	C605.418335,756.614624 606.562378,763.195374 607.837341,769.718811 
	C608.279236,771.979736 608.912109,774.616821 608.183594,776.618225 
	C605.655701,783.562927 608.026978,790.279175 608.382874,797.086670 
	C608.490051,799.136414 609.757080,800.466675 611.017822,801.753479 
	C622.454102,813.425781 625.819031,827.779785 625.078613,843.546265 
	C624.700806,851.592651 625.493591,852.461182 633.581909,852.638550 
	C638.608704,852.748779 644.002380,854.125488 647.679626,848.832458 
	C648.300964,847.938110 649.824829,848.042114 651.005127,848.289795 
	C653.121033,848.733704 655.360107,848.902588 657.320068,849.727356 
	C671.298157,855.608582 685.067444,852.514160 698.788025,848.829346 
	C701.280151,848.160095 704.523621,847.618958 704.486572,843.052856 
	C694.247620,843.315247 684.362427,845.992432 673.923340,845.993835 
	C675.094727,843.162292 677.008301,843.949768 678.512207,843.667786 
	C687.791016,841.928101 697.475891,842.476868 706.395508,838.709106 
	C709.540588,837.380615 711.146179,838.961304 711.902222,841.800659 
	C713.213074,846.722900 714.427429,851.670776 715.799072,857.067383 
	C718.314514,855.685974 719.074158,853.643921 719.831116,851.443604 
	C721.573486,846.378418 725.700256,845.025879 729.901672,848.270874 
	C732.499817,850.277588 735.380005,851.391418 738.463440,852.142761 
	C742.800659,853.199585 745.835205,856.144714 748.075256,859.611938 
	C751.207703,864.460449 748.402161,868.455200 744.991516,872.025208 
	C747.324951,876.051941 749.305298,873.858276 751.227966,871.961792 
	C757.391968,865.881531 763.553040,859.820068 770.042175,854.058777 
	C775.229553,849.453430 780.031860,850.659119 785.168518,853.156006 
	C789.745972,855.381042 790.755310,859.573425 790.307007,864.149536 
	C789.790527,869.422058 789.347839,874.619873 790.097412,879.949890 
	C790.668091,884.007996 789.147156,887.794434 786.669739,891.155884 
	C785.221191,893.121338 784.019531,895.268677 782.980103,897.540894 
	C788.321777,893.065796 793.241943,888.227966 796.780579,882.194275 
	C804.858521,868.420837 815.980286,857.548401 828.881165,848.380981 
	C833.369019,845.191833 838.074219,845.043213 842.243469,848.406860 
	C845.979004,851.420654 849.327209,854.947815 852.630371,858.452026 
	C854.742493,860.692688 854.713196,863.879822 855.626099,866.647522 
	C857.886353,873.500244 854.977905,880.474304 856.122925,886.540100 
	C857.619324,894.467224 855.535339,899.793701 851.110291,905.103455 
	C846.425110,910.725342 840.160400,912.360596 834.118530,910.043640 
	C834.362732,905.431641 838.251648,901.816406 838.236755,897.103882 
	C836.229370,896.011658 834.419495,896.152344 832.856445,897.296082 
	C822.336365,904.993958 816.679504,915.845642 812.415894,927.840393 
	C815.782898,929.749573 818.596985,929.039795 821.178833,928.078735 
	C833.508423,923.488647 844.428345,916.640137 853.708740,907.249817 
	C855.415588,905.522644 856.158813,903.429749 856.821777,901.129944 
	C862.747925,880.570496 874.645142,864.112061 891.412292,850.988892 
	C896.417114,847.071777 901.383362,846.047546 907.624878,848.399841 
	C916.487610,851.740234 925.024780,855.140991 930.518738,863.481873 
	C932.147095,865.953979 933.100464,868.312073 932.429749,871.401367 
	C930.460999,880.468689 930.108643,889.958740 929.684082,898.975220 
	C929.284607,907.455688 924.529419,913.197388 922.725586,920.570374 
	C925.179077,920.791870 925.627625,917.432129 928.412964,917.582031 
	C928.988525,922.144958 925.710449,925.221558 924.272034,928.887939 
	C919.002441,942.319458 908.712585,950.991760 896.526123,957.790039 
	C879.053040,967.537415 859.217041,957.367371 855.301636,939.735107 
	C855.021423,938.473145 854.578918,937.247131 854.207153,935.988525 
	C851.786560,935.979858 851.519897,937.982971 850.707397,939.248230 
	C847.267090,944.605652 843.276917,949.463562 838.581421,953.783447 
	C819.185059,971.627930 791.712952,955.470398 787.753052,935.933411 
	C787.330994,933.851074 786.933533,931.763733 786.350830,928.792114 
	C782.017578,934.899170 778.635559,940.784241 773.865051,945.637756 
	C769.190308,950.394043 764.913391,955.558533 758.569946,958.263733 
	C751.974426,961.076355 747.589722,959.350220 743.839355,953.299438 
	C740.427551,947.794922 739.271362,942.030334 739.663391,935.675476 
	C739.955688,930.937988 739.721069,926.167969 739.721069,920.154419 
	C731.531677,928.007202 725.479187,935.914001 718.910034,943.339600 
	C714.596985,948.215149 710.162109,952.958069 705.272095,957.249512 
	C702.935974,959.299561 700.427185,961.201538 696.701416,960.385620 
	C697.138550,956.862305 703.999512,956.603210 700.815796,951.990173 
	C699.650269,950.301331 697.370667,950.322754 695.265869,950.802368 
	C690.962708,951.782898 692.535095,955.396545 692.116882,958.971069 
	C684.131104,952.251953 684.402771,943.764343 684.877075,934.205261 
	C681.403687,936.868774 681.319031,940.241760 679.372131,942.344666 
	C675.382263,946.654419 671.053833,950.546204 665.913818,953.412964 
	C658.635193,957.472473 650.634705,953.211548 649.842285,944.823303 
	C649.593079,942.185120 649.860168,939.497070 649.909424,936.832153 
	C649.978210,933.108459 649.903870,929.450195 645.669556,927.292358 
	C646.631409,938.785828 637.164734,944.634216 631.811157,952.776428 
	C631.359924,953.462769 630.700073,954.015198 630.119629,954.612793 
	C627.437012,957.375244 625.840393,962.439758 621.051941,961.325439 
	C615.662415,960.071167 609.992493,958.573975 606.351807,953.632263 
	C602.700073,948.675720 600.008362,943.267273 600.784912,936.972168 
	C601.487305,931.278625 599.134766,925.834961 600.266113,920.082947 
	C602.866089,906.863647 609.569519,895.583252 616.388672,884.325562 
	C618.802917,880.339966 621.667053,876.631897 623.578918,872.337097 
	C625.537659,867.937195 625.854431,863.516907 624.330017,858.895813 
	C621.789734,859.188477 621.807922,861.240051 621.287292,862.617981 
	C615.924072,876.813965 608.202759,889.547241 597.987122,900.771851 
	C597.204529,901.631714 596.487915,902.563965 595.833984,903.525940 
	C594.599243,905.342346 593.211182,907.346008 594.809143,909.455872 
	C596.338989,911.475769 598.116638,909.665527 599.778687,909.218994 
	C600.212036,909.102539 600.703186,909.201477 601.510803,909.201477 
	C600.483765,912.878906 597.921143,915.337769 595.753479,917.904968 
	C574.066772,943.587524 548.133789,963.789001 517.806885,978.410034 
	C512.715149,980.864868 508.186310,983.966614 502.745728,979.692566 
	C501.961609,979.076660 500.802734,978.633484 500.443512,977.830261 
	C498.103546,972.598328 492.628265,969.801392 490.307648,964.596680 
	C489.497894,962.780518 488.245850,960.980591 488.070312,959.091980 
	C486.905334,946.558594 485.616058,934.256348 490.646027,921.824768 
	C498.026825,903.583008 506.294220,885.773438 514.477783,867.909424 
	C522.450989,850.504700 530.523804,833.145569 538.475098,815.730957 
	C540.991760,810.219116 538.945190,807.421082 532.921997,807.823303 
	C532.257324,807.867676 531.595032,807.954102 530.930054,807.986938 
	C523.668518,808.345398 523.605408,808.350708 522.800903,801.334839 
	C522.419556,798.009216 520.705566,795.035706 520.652710,791.611023 
	C520.516235,782.773254 526.903137,778.089966 535.124390,781.465515 
	C537.275208,782.348511 539.157288,782.529236 541.346619,782.348022 
	C562.596985,780.589905 583.302612,781.896973 602.128113,793.457703 
	C602.688171,793.801575 603.327881,794.038635 603.958740,794.234192 
	C604.241943,794.321960 604.595093,794.184326 605.331055,794.103394 
	C603.541992,782.777039 606.621033,771.494385 603.536438,759.863831 
	C597.529175,737.213318 593.284912,714.125366 592.530212,690.527283 
	C592.340515,684.596863 590.676697,678.713501 589.656372,672.405396 
M642.652039,452.438538 
	C641.535461,450.556854 639.406555,449.000031 641.218140,446.317047 
	C642.139709,444.952026 641.931458,443.402069 640.239807,442.581940 
	C638.665100,441.818481 637.262146,442.439636 636.347534,443.742279 
	C635.419312,445.064270 634.776123,446.586334 633.496582,448.384308 
	C631.841492,455.371338 636.751343,461.279877 643.497742,460.440674 
	C645.057373,460.246643 647.224976,458.876190 648.027283,460.831177 
	C649.899841,465.394257 651.225098,470.181915 653.199158,476.175323 
	C649.046997,472.803833 648.862610,472.850616 647.592896,467.845032 
	C646.692810,464.296753 644.972473,462.779419 641.238037,463.388947 
	C637.350098,464.023560 636.925354,466.589661 637.419189,469.652832 
	C639.755920,484.147491 634.966187,497.295868 629.735596,510.331970 
	C625.101929,521.880371 614.977905,528.011047 605.343872,534.600952 
	C603.113953,536.126343 600.091919,536.975403 599.663635,540.860413 
	C612.402527,545.779236 620.103760,556.885315 629.599060,565.854309 
	C637.479065,573.297668 644.165649,581.857056 651.222656,590.065979 
	C655.826050,595.420776 661.911011,598.630127 668.596924,600.351318 
	C675.965942,602.248413 680.158813,598.703430 678.452209,591.393677 
	C675.111145,577.082336 667.656311,565.013977 656.131470,555.655945 
	C654.637878,554.443176 652.869507,553.623047 651.052185,554.596069 
	C649.135132,555.622437 649.573914,557.716248 649.383057,559.519470 
	C649.164673,561.582275 650.854126,564.070984 648.337219,565.795532 
	C646.122253,564.427368 646.829224,562.417847 646.678528,560.687805 
	C645.311890,544.996948 650.910828,530.900757 656.856689,516.920654 
	C658.868835,512.189453 660.872803,507.415161 664.496216,503.540192 
	C667.556885,500.267151 670.951904,498.961121 675.231140,500.845093 
	C677.516479,501.851227 679.827209,502.803223 682.086609,503.864594 
	C687.256836,506.293488 692.531189,508.215576 698.380005,508.052734 
	C701.760803,507.958588 705.436584,507.159973 706.280945,503.917847 
	C708.022461,497.230804 708.525146,490.215057 713.028870,484.751251 
	C710.094543,482.299408 706.284546,484.359680 704.942444,480.934631 
	C705.473389,480.141998 706.116516,480.443909 706.756653,480.494812 
	C714.848328,481.138245 715.010742,481.026672 714.701599,472.952911 
	C714.458374,466.601624 714.518921,460.522308 717.780640,454.563202 
	C721.113770,448.473541 723.551819,441.909760 723.009888,434.552826 
	C722.729919,430.752228 724.458191,427.097809 725.473999,423.399872 
	C728.706177,411.632782 729.322937,399.788574 725.403381,388.006775 
	C724.832703,386.291443 724.309875,384.328094 721.959778,384.268250 
	C719.738708,384.211731 718.753662,385.874237 718.044556,387.593292 
	C712.879578,400.114594 702.856873,407.557404 691.146118,413.096069 
	C685.616577,415.711304 680.553955,418.362793 678.567017,424.877228 
	C677.892456,427.088623 675.763367,428.979156 674.001221,430.713898 
	C667.734436,436.883026 659.539001,436.934296 651.574646,437.185455 
	C648.144104,437.293610 646.466309,437.769745 646.358704,441.765503 
	C646.278198,444.756836 644.521179,447.532104 645.924194,450.850006 
	C646.705627,452.697784 644.611877,453.102264 642.652039,452.438538 
M401.761505,642.803345 
	C402.121918,640.855591 402.307159,638.822388 404.466553,636.893372 
	C403.593781,656.958130 399.687927,676.477234 407.529388,695.909058 
	C410.165405,692.874023 410.165436,692.874023 410.767853,690.185364 
	C414.447937,673.760864 418.576202,657.433533 424.899445,641.819458 
	C429.261383,631.048340 428.776276,620.782898 424.262329,610.349365 
	C420.841492,602.442383 415.985504,595.478088 410.177216,589.245667 
	C392.067200,569.813171 369.842255,558.788147 343.087341,558.549316 
	C321.366638,558.355469 301.508362,564.764832 283.641571,577.452087 
	C268.131836,588.465576 256.389404,602.268311 249.587967,620.135376 
	C248.665771,622.557983 248.392563,624.816162 249.392715,627.354492 
	C256.309357,644.908569 259.470306,663.510559 264.443390,681.608948 
	C265.555328,685.655701 265.397247,690.059387 268.158875,695.289490 
	C273.222534,680.731445 273.369659,666.730530 274.565338,651.762024 
	C276.842651,655.705566 276.831482,655.705200 276.775543,657.393982 
	C276.112061,677.416260 272.373810,696.557739 263.035370,714.645691 
	C252.914124,734.250000 255.365372,764.305359 274.060913,782.206482 
	C275.367432,783.457458 277.175140,784.554260 277.400024,786.951355 
	C274.065643,786.675415 272.987122,782.976990 269.128510,782.780640 
	C271.139069,788.970581 272.864655,794.784790 274.908783,800.484863 
	C281.742828,819.541687 299.392578,830.203186 319.353821,827.110046 
	C331.604675,825.211670 343.737610,824.128906 356.057007,826.774597 
	C367.705780,829.276245 377.451996,824.666565 386.661957,817.899048 
	C397.166138,810.180542 397.891113,797.738098 402.495728,787.559021 
	C401.774963,785.353027 399.274902,787.241211 398.713470,785.033997 
	C400.706146,782.913513 402.632507,780.609680 404.817413,778.584839 
	C412.195496,771.747314 415.602386,762.946594 416.584229,753.315491 
	C417.897339,740.434082 416.267853,727.798828 412.296967,715.382446 
	C409.198547,705.693970 403.987335,696.798706 401.734131,686.845886 
	C398.480347,672.473145 399.892944,658.045532 401.761505,642.803345 
M477.110260,746.614197 
	C483.527802,738.320129 487.638824,728.818176 490.597046,718.920105 
	C496.449860,699.336792 501.151703,679.491333 505.143036,659.395569 
	C508.483093,642.579102 511.334625,625.764404 513.314148,608.770142 
	C514.164185,601.472473 514.346497,594.287781 511.815521,587.087952 
	C506.034485,570.642883 497.837036,555.439270 488.897675,540.579712 
	C488.128052,539.300354 487.230255,538.075073 486.246338,536.952393 
	C484.226837,534.648010 482.220337,534.847717 481.669922,537.895691 
	C480.767578,542.892334 479.902527,547.742554 481.913147,553.031555 
	C487.470764,567.650818 491.968903,582.650635 495.868744,597.805847 
	C496.422668,599.958313 497.711273,602.315552 495.955322,605.844788 
	C490.157410,589.309814 486.936615,572.972107 480.174866,557.244568 
	C477.662689,559.814209 477.742432,562.144714 477.492767,564.160706 
	C476.289703,573.876587 472.392517,583.079102 472.317596,593.028198 
	C472.280426,597.967102 468.845886,601.941284 467.320679,606.479309 
	C464.273438,615.545837 462.814545,624.875732 463.232971,634.477173 
	C463.433350,639.075134 462.914337,644.048035 459.866180,647.252747 
	C455.463959,651.881226 454.156494,657.656799 451.787323,663.074341 
	C449.254974,668.864990 447.126801,674.849976 443.293152,679.991516 
	C441.963013,681.775452 441.356201,683.803467 441.402374,686.071411 
	C441.520569,691.874573 439.785767,697.259216 437.265686,702.377441 
	C435.824829,705.303894 435.331360,708.271179 435.243622,711.506409 
	C434.641968,733.691467 437.278473,755.717163 438.394684,777.815613 
	C438.644440,782.759949 440.819000,783.689026 444.828156,780.892517 
	C446.325317,779.848145 447.757141,778.680969 449.085632,777.428528 
	C459.043396,768.041504 468.060028,757.791809 477.110260,746.614197 
M573.989136,848.187683 
	C572.825500,848.130310 571.661682,848.077881 570.498352,848.014404 
	C568.621704,847.911926 567.128784,847.337036 567.500488,845.046631 
	C567.865051,842.800537 569.542236,843.259827 570.998596,843.599060 
	C573.585083,844.201477 576.128479,844.996338 578.723755,845.552673 
	C590.898804,848.162292 588.191711,849.477600 592.143860,838.572144 
	C593.481445,834.881104 594.035095,830.718018 598.001953,826.675720 
	C596.842468,834.951721 592.701111,840.932617 591.950867,847.794678 
	C595.061035,849.513977 596.965027,848.606201 598.320679,845.908691 
	C602.252686,838.084534 604.151245,829.635376 605.413879,821.092285 
	C606.202515,815.756409 602.836060,811.428284 597.670837,809.204285 
	C591.492798,806.544189 584.907471,807.242798 578.485229,806.716553 
	C576.192871,806.528809 574.090149,807.828552 574.305237,810.605103 
	C574.651184,815.070312 572.585022,818.681152 570.529480,822.284424 
	C560.459229,839.937073 551.519287,858.174927 542.461853,876.351257 
	C540.323975,880.641479 537.702881,884.786560 537.806946,889.883728 
	C537.931702,895.997375 538.859863,902.071350 534.746887,907.700989 
	C531.635864,911.959351 529.555786,916.984558 527.130371,921.726562 
	C524.536621,926.797607 522.075928,931.936829 519.540405,937.080322 
	C521.753906,937.964661 522.776733,936.920044 523.767944,936.131775 
	C528.327271,932.505981 533.078674,929.072876 537.305603,925.087524 
	C548.170593,914.843689 558.672485,904.351746 568.078430,892.575562 
	C575.012817,883.893921 582.132446,876.242065 583.624268,864.535522 
	C584.720947,855.930237 583.086182,851.500000 573.989136,848.187683 
M386.064148,902.546631 
	C394.965912,894.936646 403.679749,887.395508 408.567566,876.104248 
	C411.957764,868.272644 419.205170,862.978455 424.942535,856.742676 
	C426.704346,854.827820 428.146149,853.101379 427.920624,850.257324 
	C427.104797,839.968811 426.422852,829.669495 425.726501,819.371826 
	C425.488373,815.850647 423.860901,814.723755 420.890930,816.777039 
	C411.336395,823.382690 400.451630,827.154053 389.907074,831.683594 
	C380.300079,835.810425 380.357849,835.940857 385.265747,844.775818 
	C385.587708,845.355469 386.012787,845.932312 386.134125,846.559937 
	C386.801361,850.012146 388.750671,852.033569 392.181213,853.083984 
	C396.107391,854.286072 397.996552,857.381836 398.234161,861.406616 
	C398.545105,866.672913 397.576599,871.609558 394.692444,876.184387 
	C389.454071,884.493347 384.346588,892.886536 379.308685,901.318787 
	C378.273865,903.050781 376.669373,904.873596 378.043274,907.469421 
	C381.289642,907.193604 383.209747,904.745789 386.064148,902.546631 
M348.481781,882.978821 
	C352.677734,878.711914 356.845428,874.416626 361.081970,870.190308 
	C363.108765,868.168396 363.327515,866.193420 361.251953,864.142883 
	C356.696503,859.642212 355.009064,853.953674 354.893005,847.812439 
	C354.817474,843.817200 352.804382,843.023315 349.453064,843.364929 
	C346.483856,843.667664 343.497620,844.088806 340.526367,844.036377 
	C328.318939,843.820862 316.473816,841.291321 304.731995,838.155396 
	C299.819244,836.843445 298.590424,837.895325 299.443298,842.909912 
	C300.947693,851.755249 302.722260,860.554993 304.191498,869.405762 
	C304.893860,873.636536 308.181152,878.300354 302.615021,881.884705 
	C302.085785,882.225464 302.321960,883.767578 302.218323,884.753601 
	C302.028992,886.554260 302.156708,888.452698 300.403351,890.058472 
	C297.279022,888.447937 295.503723,890.238708 293.663635,892.784973 
	C291.331940,896.011597 288.225830,898.692261 285.998962,901.977966 
	C281.848267,908.102295 276.218964,910.063782 269.162201,909.191528 
	C267.358032,908.968567 265.244293,908.252930 263.860596,910.146484 
	C264.418304,913.083069 268.117035,911.877197 269.276489,915.009033 
	C265.719910,914.466187 263.451813,918.075439 261.162018,917.579773 
	C254.672363,916.174866 254.013184,920.798706 252.494415,924.686951 
	C251.747238,926.599792 250.227066,928.794861 252.268753,930.699707 
	C254.177795,932.480774 256.421997,931.361938 258.391144,930.567871 
	C263.822296,928.377625 268.270020,924.650024 273.077087,921.414795 
	C280.851227,916.182617 288.600372,911.155945 294.548279,903.776978 
	C295.966736,902.017151 297.542694,901.015686 298.735779,904.469971 
	C304.010620,892.892944 310.087494,882.196045 316.453491,871.641541 
	C320.735046,864.543030 325.424072,857.688904 328.738678,849.988708 
	C330.231293,846.521118 333.808533,845.599915 337.220520,847.698547 
	C340.644073,849.804199 344.305969,851.261108 347.910278,852.935791 
	C352.006897,854.839355 356.377899,857.312622 357.169159,862.589966 
	C357.927795,867.649963 354.473419,870.650391 351.021759,873.285095 
	C342.368225,879.890625 336.503052,888.807434 330.408813,897.547180 
	C329.720795,898.533875 328.633636,899.701172 330.308838,901.486450 
	C336.855164,896.113770 342.001282,889.369812 348.481781,882.978821 
M583.699768,550.715576 
	C595.906128,551.388062 606.793823,555.589783 616.191406,563.348206 
	C623.773987,569.608154 630.474670,576.793457 637.277161,583.897034 
	C644.732788,591.682678 651.846375,600.145630 660.832581,606.056580 
	C677.844543,617.246521 693.877258,629.677917 709.934509,642.119202 
	C713.692261,645.030701 717.561340,647.787109 722.334412,650.185120 
	C721.672729,645.202942 720.625061,641.026001 718.070618,637.451416 
	C705.769104,620.237671 694.524902,602.328003 683.077759,584.551147 
	C682.456116,583.585754 681.929382,582.406555 679.777283,583.537109 
	C680.556030,586.490356 681.742920,589.590454 681.897034,592.859924 
	C682.240845,600.152039 679.247314,603.576355 672.047302,603.322205 
	C663.782104,603.030273 656.119934,600.342041 650.626892,594.087769 
	C638.210083,579.950256 626.040466,565.605774 612.296082,552.703247 
	C608.501282,549.140808 604.417725,546.077698 599.503174,544.162354 
	C593.379883,541.775879 582.835632,544.238647 577.787231,549.512939 
	C579.190674,551.195923 581.149597,550.448242 583.699768,550.715576 
M423.372437,780.367859 
	C421.574493,773.355774 423.549469,765.694397 419.798126,757.506836 
	C417.240997,763.880676 416.089508,769.456238 412.668610,773.711914 
	C406.493591,781.393860 406.291779,791.392151 401.955811,799.749817 
	C401.377380,800.864685 401.131317,802.358582 402.309448,803.481750 
	C403.535309,804.650391 404.758667,803.987183 405.990601,803.431824 
	C407.962463,802.542969 409.889893,801.495789 411.942047,800.854797 
	C421.770935,797.784912 425.816193,791.389526 423.372437,780.367859 
M844.719482,494.237640 
	C845.405212,499.003357 844.849243,503.491638 841.736145,507.391052 
	C840.916199,508.418060 840.160339,509.679993 838.554321,509.344666 
	C837.048828,509.030396 836.467712,507.787781 836.140259,506.454041 
	C835.427490,503.550201 834.903381,500.593231 834.055359,497.731140 
	C832.929260,493.930817 831.446838,490.289795 827.072144,488.186798 
	C822.244141,497.237091 827.802673,504.946899 828.951843,514.253357 
	C833.274292,509.047882 837.266907,511.177094 841.137695,512.873413 
	C843.344543,513.840515 845.418762,514.147766 847.083801,512.285461 
	C849.608337,509.462006 852.434387,506.786926 854.018372,503.287109 
	C857.389404,495.839203 852.649658,482.837555 845.308838,479.025360 
	C843.475037,478.072998 841.608459,478.533447 840.137085,479.619934 
	C838.609497,480.747803 839.638245,482.211365 840.156433,483.649841 
	C841.394287,487.085876 844.248596,489.744873 844.719482,494.237640 
M666.077820,883.193604 
	C668.391113,884.129150 670.712769,885.215027 673.275879,884.830383 
	C675.412720,884.509766 677.820374,884.004578 678.428772,881.596436 
	C678.970825,879.451111 677.392639,877.979675 675.726501,876.685791 
	C670.873718,872.917236 666.960022,873.111145 660.689148,878.503052 
	C649.289185,888.304993 639.570190,899.634460 631.434875,912.289856 
	C630.517639,913.716675 629.127014,915.232849 630.524902,917.287231 
	C631.031494,917.202271 631.658752,917.292175 631.938904,917.021973 
	C641.734436,907.576416 651.149780,897.769287 659.069275,886.668152 
	C660.736755,884.330811 662.051880,882.268066 666.077820,883.193604 
M405.873016,910.469116 
	C405.242737,906.238037 406.819885,901.537964 403.153992,897.477051 
	C400.500610,900.638489 399.693390,904.176392 398.477020,907.675476 
	C400.425690,907.991028 401.074127,904.602295 403.027557,906.716125 
	C404.029755,907.800720 404.156616,909.039917 403.593414,910.406799 
	C400.565125,917.756714 397.933075,925.291504 393.107666,931.771057 
	C391.970245,933.298401 390.327209,934.701294 390.740356,937.062927 
	C391.199371,937.252625 391.701569,937.675598 392.068512,937.579895 
	C399.036713,935.762573 405.271851,932.339722 411.319092,928.560364 
	C413.198273,927.385925 412.838776,925.717346 411.508820,924.341553 
	C407.979706,920.690796 406.589905,916.167419 405.873016,910.469116 
M241.764679,680.539185 
	C237.773972,697.409363 246.737701,710.688354 253.125854,725.383240 
	C256.550262,722.712036 256.660797,720.102234 254.949219,718.142456 
	C249.147522,711.499268 249.212082,703.168518 247.748489,695.252319 
	C246.441696,688.184204 247.234329,681.229980 249.571869,674.203857 
	C244.416794,673.496216 243.317566,676.758362 241.764679,680.539185 
M686.613220,914.485657 
	C689.641785,905.273132 694.698242,896.899414 698.604126,887.366089 
	C692.605896,887.955505 688.026367,889.719727 683.995056,892.771179 
	C678.937012,896.599609 678.250732,903.804688 682.170654,908.348694 
	C683.047241,909.364746 685.027161,908.751587 685.081482,910.313538 
	C684.894714,912.253052 684.242004,914.044739 684.700012,915.482727 
	C685.333618,917.472351 685.924622,915.728455 686.613220,914.485657 
M275.122955,891.588135 
	C277.087097,888.122803 278.920227,884.599976 279.878113,880.695679 
	C280.324219,878.877380 280.755371,876.847839 278.864227,875.755432 
	C277.135010,874.756592 275.632507,876.176208 274.550079,877.363403 
	C271.429199,880.786316 268.347748,884.260315 265.489838,887.901855 
	C263.878540,889.954834 260.913818,892.093323 263.741852,895.149902 
	C266.383484,898.004822 269.279602,896.313354 271.899109,894.907410 
	C273.007355,894.312683 273.797455,893.125244 275.122955,891.588135 
M252.996841,668.013977 
	C254.700287,673.409607 251.578506,678.738586 252.064651,685.210938 
	C257.483704,681.384399 258.092743,676.694153 257.498840,672.162354 
	C256.065674,661.226685 254.137634,650.333374 244.108658,643.189514 
	C247.970749,650.858704 251.514633,658.603088 252.996841,668.013977 
M435.629242,698.020935 
	C437.588867,692.026550 439.721405,686.042969 437.723969,679.609863 
	C437.015045,677.326660 436.279724,674.984131 433.036804,674.534912 
	C433.036804,675.703979 432.897491,676.536926 433.058258,677.307251 
	C434.770721,685.511658 433.548096,693.090820 428.425293,699.891724 
	C428.035248,700.409485 427.791199,701.060669 427.578033,701.683594 
	C427.054657,703.212891 427.110260,704.695557 428.573639,705.674133 
	C430.286469,706.819702 431.457367,705.619507 432.277863,704.369812 
	C433.449738,702.584961 434.367645,700.633423 435.629242,698.020935 
M899.820618,924.906677 
	C895.524475,922.000916 889.725403,922.028137 886.545410,917.404846 
	C883.663208,919.447266 883.279663,922.250305 882.080933,924.557251 
	C881.119324,926.407532 880.521667,928.371399 882.261047,930.093811 
	C883.831848,931.649231 885.781067,931.828552 887.841187,931.152832 
	C891.983765,929.794128 895.857544,927.897522 899.820618,924.906677 
M448.009521,900.530640 
	C448.885803,897.761108 452.600342,896.707031 452.592651,892.869995 
	C446.361298,893.979309 441.173584,896.356995 436.838806,900.696350 
	C434.565796,902.971863 433.256287,904.825745 436.281921,907.648621 
	C439.327820,910.490540 441.476013,909.654175 443.589478,906.774048 
	C444.958038,904.909058 446.290466,903.017456 448.009521,900.530640 
M434.109833,658.621338 
	C433.602600,660.883240 433.061768,663.138367 432.598785,665.409302 
	C432.231598,667.210388 432.568115,668.774170 434.558411,669.402649 
	C436.383179,669.978882 437.433289,668.836731 438.049133,667.396362 
	C439.870697,663.135864 441.632751,658.847778 443.304535,654.526489 
	C443.940247,652.883179 443.940521,651.214905 441.961609,650.312561 
	C440.042297,649.437317 438.277771,649.688293 437.214905,651.576599 
	C436.085754,653.582581 435.251709,655.754761 434.109833,658.621338 
M246.524307,667.356262 
	C245.567535,663.356934 244.510193,659.378052 243.692047,655.350525 
	C243.207504,652.965271 242.394180,651.100159 239.584579,651.617126 
	C237.133972,652.067871 235.900513,653.703735 236.266968,656.286987 
	C236.901337,660.758789 238.319305,665.041077 240.792053,668.755371 
	C242.602890,671.475525 245.029526,672.098450 246.524307,667.356262 
M718.429077,459.998047 
	C717.851807,462.390930 716.399597,464.800049 718.652283,467.767944 
	C722.040771,463.611450 724.628845,459.470764 726.574158,454.954742 
	C728.026672,451.582611 726.635742,450.087677 723.042114,450.192291 
	C721.546692,453.346680 720.137085,456.320160 718.429077,459.998047 
M464.155273,892.765259 
	C464.951477,890.600342 463.732727,890.087036 461.951813,890.179932 
	C458.226196,890.374207 454.539001,895.499817 455.308319,899.704285 
	C458.900177,898.516663 461.366730,895.961853 464.155273,892.765259 
M835.695984,487.337708 
	C830.577759,489.090729 835.371338,491.052979 835.715149,492.801636 
	C835.968567,494.090973 837.290100,495.084167 838.791565,494.060059 
	C840.103394,493.165344 840.833191,491.855103 840.007629,490.224487 
	C839.251587,488.731445 838.386841,487.299530 835.695984,487.337708 
M622.753357,954.443604 
	C620.763916,953.285217 618.848328,951.963379 616.761414,951.020691 
	C615.115723,950.277222 613.107605,950.303589 613.480713,952.867981 
	C613.816284,955.174011 616.235901,955.556091 618.089172,956.011108 
	C619.822327,956.436584 622.133545,958.327698 622.753357,954.443604 
M547.206848,952.583984 
	C546.169983,953.690857 544.346313,954.411865 545.166931,956.729675 
	C549.233765,956.392151 550.982361,953.575989 552.997742,950.683655 
	C550.496948,949.633423 549.273315,951.361938 547.206848,952.583984 
M427.578064,690.916870 
	C426.445251,689.157532 425.032898,687.329773 422.889008,689.059326 
	C421.451874,690.218689 422.432678,691.905884 423.783417,692.806519 
	C425.441650,693.912048 427.234711,694.682678 427.578064,690.916870 
M255.034576,688.935181 
	C252.838669,688.453003 250.924088,688.667603 250.782394,691.430237 
	C250.722000,692.607544 251.518250,693.801453 252.947739,693.631104 
	C255.461227,693.331543 256.327881,691.831665 255.034576,688.935181 
M898.152954,911.643372 
	C899.473938,911.395264 900.962769,911.428345 901.906250,909.485657 
	C898.640625,909.395020 895.895081,908.135132 892.951721,909.200562 
	C893.717346,911.975342 895.682556,911.622986 898.152954,911.643372 
M461.795502,437.948639 
	C464.252991,440.570984 466.539185,440.631378 470.572937,437.614594 
	C467.360870,437.614594 464.836334,437.614594 461.795502,437.948639 
M728.961609,422.918549 
	C727.636780,425.847870 726.267517,428.765717 726.332703,432.134583 
	C731.079407,430.160492 729.796814,426.404144 728.961609,422.918549 
M372.272064,848.880432 
	C370.784271,850.693665 370.941620,852.241821 373.158539,853.224792 
	C374.211395,853.691528 375.259460,853.166504 375.543671,852.093140 
	C376.122192,849.908386 375.373596,848.511902 372.272064,848.880432 
M728.067078,445.965057 
	C728.860962,444.170105 729.686279,442.371735 727.662903,440.728607 
	C724.198914,444.757233 724.225952,445.732727 728.067078,445.965057 
z"/>
<path fill="#000000" opacity="1.000000" stroke="none" 
	d="
M163.288055,897.402283 
	C174.420242,871.268738 187.976212,846.750671 200.434906,821.693481 
	C204.143204,814.235229 207.704025,806.703003 211.279587,799.179565 
	C212.638474,796.320251 213.586823,793.364868 214.037506,790.159241 
	C215.026947,783.121765 218.759705,780.504028 225.510071,782.272583 
	C231.936325,783.956177 238.715225,784.244934 244.830933,787.136230 
	C251.585892,790.329834 252.339417,793.988892 247.313293,799.428223 
	C241.677170,805.527893 238.881638,813.336182 234.783417,820.349182 
	C217.278519,850.303650 202.672531,881.723328 188.133240,913.181519 
	C185.739334,918.361084 188.563721,922.888733 188.336288,927.738708 
	C188.244293,929.700256 190.302490,929.367798 191.864532,929.228943 
	C196.978790,928.774353 202.021210,928.088013 207.256378,928.494507 
	C218.087616,929.335449 221.748932,938.732910 222.088425,946.688110 
	C222.215317,949.661255 222.152161,952.442261 223.132599,955.351013 
	C225.482590,962.322876 221.952011,966.342529 214.261261,965.831055 
	C213.372025,960.646057 212.130966,955.613770 208.882339,951.274231 
	C207.609131,949.573486 206.061310,949.098938 204.102753,949.333984 
	C190.997238,950.906616 179.574921,956.461975 169.095062,964.197754 
	C167.682007,965.240845 167.787521,965.383789 167.527267,971.463257 
	C169.296616,972.617432 171.395630,969.908752 173.097672,971.909302 
	C169.817459,979.108215 159.084320,980.822266 154.939697,974.488953 
	C151.184601,968.750916 146.595551,963.203308 147.618591,955.378113 
	C147.887177,953.323669 146.250610,951.014404 145.467896,948.829651 
	C144.326263,945.642822 144.704834,942.768005 147.771301,940.978394 
	C149.914902,939.727478 150.721085,937.940125 151.065948,935.726868 
	C153.135239,922.447266 158.054474,910.073792 163.288055,897.402283 
z"/>
<path fill="#000000" opacity="1.000000" stroke="none" 
	d="
M235.103745,250.371475 
	C226.391296,242.832993 222.430496,233.038376 220.713135,222.346039 
	C217.194824,200.440903 221.730408,179.343918 227.990540,158.515335 
	C230.631531,149.728317 234.200684,141.307861 238.874039,133.372604 
	C241.513718,128.890488 244.415314,124.673431 248.721588,121.594238 
	C253.321762,118.304863 256.588928,118.861130 259.073608,124.150406 
	C261.539795,129.400238 263.486664,134.917496 265.345184,140.424149 
	C268.553650,149.930725 274.115845,158.271500 278.411011,167.236801 
	C290.634918,192.751572 285.627472,216.302353 271.443359,239.106979 
	C270.389343,240.801544 269.320618,242.494232 268.393433,244.258575 
	C267.101715,246.716522 265.993835,245.031937 264.013611,243.380234 
	C262.349091,253.489960 257.177002,260.822510 248.408981,266.747894 
	C249.410858,262.131409 253.429352,260.756744 254.952942,257.253784 
	C251.302139,251.776016 242.287033,251.398788 241.132706,243.025238 
	C242.107574,241.718323 244.515015,244.965378 245.420929,242.416840 
	C246.069412,240.592514 245.403534,238.845367 244.839005,237.078278 
	C243.906708,234.160004 241.872192,231.597000 241.604477,228.280212 
	C244.448746,228.450348 244.437531,231.833817 247.275604,232.116394 
	C247.123749,229.304703 246.126282,226.906677 244.986603,224.592438 
	C243.931808,222.450607 242.664597,220.413391 241.246368,217.895996 
	C244.505386,218.400803 245.102982,221.362747 247.612167,222.139511 
	C249.248062,219.875137 246.603607,218.269760 246.670670,216.034180 
	C249.570236,216.406036 249.636337,219.824860 252.278778,220.912720 
	C253.586853,217.669312 251.584000,215.301514 250.307541,212.848831 
	C249.012848,210.361099 247.555557,207.957993 245.848145,204.952118 
	C249.894974,205.171127 249.864288,209.660019 253.138153,210.343521 
	C254.462570,205.351257 249.562149,202.392197 249.107285,196.908340 
	C253.926865,201.297653 255.586746,206.585556 258.816559,210.521454 
	C259.144196,207.194672 258.752686,205.086227 256.665344,200.731781 
	C255.171860,197.616180 253.524307,194.574432 251.927246,191.464218 
	C254.131714,190.102234 254.470200,192.936066 256.335052,192.649170 
	C256.494965,189.385803 254.697891,186.576904 253.645172,183.495743 
	C255.706482,183.197449 255.704803,185.662155 257.833496,185.776459 
	C257.860809,185.725372 258.212738,185.328415 258.287323,184.884796 
	C258.695557,182.456940 257.430328,180.362335 256.800140,178.155701 
	C255.375961,173.169037 251.952759,169.052872 252.244705,163.183090 
	C252.477692,158.498718 247.210068,154.991745 241.667694,154.253204 
	C236.736816,153.596161 233.142899,155.671768 231.122360,160.055923 
	C227.124619,168.730301 225.199005,178.097473 223.587296,187.376251 
	C221.737686,198.024582 221.955444,208.897446 223.032944,219.716095 
	C224.058243,230.010513 228.136322,238.916702 234.571701,246.869110 
	C235.855530,248.455566 235.835602,248.471695 235.103745,250.371475 
M269.797791,221.975418 
	C266.614136,226.296875 267.917114,231.185074 267.823090,236.627747 
	C271.587677,231.369690 274.802856,226.523727 276.676117,221.095810 
	C278.719421,215.175262 280.747559,209.145447 280.749115,202.731384 
	C280.749512,201.193024 280.457031,199.687759 278.899933,198.908798 
	C277.443329,198.180084 276.308319,199.045334 275.311493,199.933151 
	C270.092957,204.580978 265.130493,209.300934 269.311066,217.276566 
	C269.888885,218.378922 269.702301,219.881943 269.797791,221.975418 
z"/>
<path fill="#000000" opacity="1.000000" stroke="none" 
	d="
M300.986328,238.019424 
	C304.756622,238.406082 302.251068,240.445755 301.696381,241.471146 
	C297.802826,248.668823 294.429474,256.076599 292.021179,263.906952 
	C289.590393,271.810455 289.407043,279.758942 291.837860,287.942139 
	C293.644104,274.807556 299.441925,263.252411 305.091187,251.557281 
	C302.841919,260.584167 300.389099,269.512146 299.691010,278.773438 
	C298.976105,288.257416 300.576141,297.279358 305.105438,305.761353 
	C304.545929,295.037964 304.691833,284.464935 307.318909,274.078583 
	C308.132904,270.860352 309.252777,267.709778 310.401611,264.590485 
	C310.899078,263.239746 311.824585,262.046600 312.662018,260.597931 
	C314.190277,261.803040 313.249664,262.889984 312.941437,263.782471 
	C310.434570,271.040680 308.449677,278.399872 307.729980,286.087677 
	C307.503693,288.504608 307.116943,290.917847 309.328735,292.439911 
	C310.873596,293.503021 312.968384,293.493958 314.565979,292.413086 
	C316.814667,290.891754 315.903931,288.481812 315.589264,286.429932 
	C313.400970,272.161621 314.980896,258.232758 319.193573,244.526077 
	C319.483917,243.581421 319.898132,242.667419 320.340759,241.782181 
	C320.452820,241.558060 320.896393,241.499695 322.036682,240.972961 
	C319.714172,252.412796 317.091644,263.289978 317.277954,274.548615 
	C317.467529,286.004852 320.051483,296.591309 327.046570,305.927734 
	C328.019562,297.440277 324.028564,289.420044 325.524017,280.922729 
	C330.612335,300.292755 332.073181,320.717560 342.972076,338.298065 
	C340.889221,339.297241 340.400818,337.898254 339.877899,337.033630 
	C338.415619,334.615601 336.363556,332.240753 335.874969,329.602448 
	C333.919006,319.040527 327.163757,317.801941 317.801575,317.968140 
	C297.200439,318.333771 276.607300,318.115082 256.179901,321.353271 
	C248.253708,322.609772 240.591766,324.747894 233.324463,328.253876 
	C226.697296,331.451050 221.784042,335.958435 220.103149,343.495117 
	C219.706131,345.275238 219.767944,347.546814 216.674271,349.344696 
	C217.647339,338.431061 213.766159,327.781219 221.357758,318.381836 
	C223.204483,316.095398 224.855515,313.337402 225.579910,310.533600 
	C226.592834,306.613007 229.027054,304.962280 232.452362,303.487274 
	C248.192337,296.709381 265.003601,295.546143 281.698456,293.817017 
	C288.602936,293.101868 289.166870,292.669800 287.661957,285.933258 
	C285.971771,278.367310 287.193573,271.023956 289.393372,263.793701 
	C291.625214,256.458069 294.742554,249.459518 298.200806,241.904251 
	C299.294281,240.207138 300.140320,239.113281 300.986328,238.019424 
z"/>
<path fill="#000000" opacity="1.000000" stroke="none" 
	d="
M461.763489,302.620178 
	C461.973572,301.486115 461.898773,300.542969 463.485535,300.345581 
	C465.016724,302.792206 464.364105,305.674988 464.309143,308.328613 
	C464.205200,313.345764 465.116791,318.092224 468.365082,321.896545 
	C472.746857,327.028381 473.994873,333.375641 476.056122,339.435181 
	C476.213409,339.897552 476.357941,340.459076 476.242218,340.905518 
	C474.214661,348.728333 473.790283,356.732544 473.622528,365.101929 
	C468.534149,359.553925 462.311920,355.681824 456.792847,349.290985 
	C462.776581,349.932281 464.460052,355.441437 468.888947,356.252136 
	C470.437592,349.425476 466.382568,336.648590 459.325256,332.865875 
	C450.055786,327.897430 440.180908,325.373871 430.041595,323.351044 
	C418.258606,321.000275 406.257935,320.694580 394.354309,319.510498 
	C389.999481,319.077301 385.548737,320.004578 381.154541,319.135376 
	C376.610748,318.236633 376.471161,323.109924 373.705566,325.161102 
	C372.526550,323.028107 373.784241,321.549133 374.465179,320.055847 
	C375.719818,317.304413 376.796936,314.597229 376.221313,311.417999 
	C375.948395,309.910583 375.653778,307.954651 378.384796,307.898560 
	C380.046753,307.864471 380.228882,306.133362 380.739105,304.993896 
	C384.790680,295.945801 387.099518,286.461334 387.686340,276.559143 
	C388.087799,269.784790 388.513092,263.011841 388.969391,255.557495 
	C391.582306,257.686188 390.945740,259.896973 390.866394,261.907257 
	C390.761536,264.564911 390.403839,267.217194 390.395386,269.872528 
	C390.388672,271.980530 389.501099,274.344788 392.682129,275.614990 
	C393.613739,275.987030 393.740662,278.940216 393.840179,280.732391 
	C394.284027,288.722321 393.751831,296.670349 392.547882,304.581635 
	C392.306488,306.167786 391.956696,307.818970 393.093048,310.195221 
	C399.807556,296.862396 401.101166,283.269806 400.833191,269.223969 
	C400.561768,255.000015 395.434418,242.151031 390.636597,229.177551 
	C403.748993,249.384872 405.529938,271.634979 402.324860,294.951782 
	C407.222565,289.147827 407.575623,282.184204 408.073822,275.272491 
	C408.577759,268.281158 406.620636,261.558838 405.828003,254.677002 
	C411.646545,266.102661 416.620239,277.684784 413.570221,291.685059 
	C411.780365,287.234497 413.772888,282.853668 411.425751,278.737152 
	C409.155304,283.587860 409.182587,288.765472 407.551819,293.475189 
	C406.995728,295.081207 408.298920,295.629822 409.846741,295.929932 
	C424.719147,298.813599 439.716980,301.202637 453.948181,306.715027 
	C456.089996,307.544617 458.003601,309.017944 460.404388,309.158478 
	C462.431854,307.355316 461.409088,305.025665 461.763489,302.620178 
M390.804840,280.528168 
	C390.707855,280.421417 390.610901,280.314667 390.513916,280.207916 
	C390.420929,280.340698 390.243988,280.475586 390.247192,280.606018 
	C390.351074,284.835297 387.259857,288.884888 389.246155,294.440063 
	C392.223022,289.414612 391.186920,285.180908 390.804840,280.528168 
z"/>
<path fill="#000000" opacity="1.000000" stroke="none" 
	d="
M753.654541,746.327637 
	C751.241150,739.325256 750.564880,732.252075 746.834167,725.134705 
	C755.381165,727.119568 762.894836,728.904541 770.428406,730.601135 
	C776.300720,731.923523 782.159851,732.189087 788.232300,731.553162 
	C793.915771,730.957947 795.971558,727.430115 797.663025,722.991577 
	C798.174561,721.649414 797.973022,719.942261 799.601807,719.172119 
	C801.298950,719.340393 801.876953,720.661255 802.007996,721.948303 
	C802.927307,730.977844 807.817078,738.680786 810.544373,747.105896 
	C814.163391,758.285583 815.234314,769.554443 813.875549,780.867920 
	C813.193054,786.549683 809.930176,792.225281 803.359253,794.298340 
	C802.886475,794.447510 802.378845,794.583862 801.981812,794.861267 
	C788.328308,804.402405 775.448669,795.609314 768.489563,784.759338 
	C760.994446,773.073730 756.934326,760.071655 753.654541,746.327637 
M791.474670,791.221619 
	C796.808899,792.107483 801.315063,789.866394 802.305603,785.199097 
	C803.162659,781.160278 803.427429,776.837158 802.130310,772.861023 
	C798.346069,761.260864 794.455688,749.680786 788.503723,738.939575 
	C787.721130,737.527283 787.499207,735.432800 785.403137,735.481995 
	C779.477173,735.621033 773.640930,734.503845 767.035950,734.317749 
	C772.860840,743.352417 770.747986,753.635742 773.007507,763.171021 
	C775.753845,774.760437 781.855469,783.577087 791.474670,791.221619 
z"/>
<path fill="#000000" opacity="1.000000" stroke="none" 
	d="
M312.635193,207.532227 
	C316.048035,205.569397 319.050964,203.547318 323.225555,203.545166 
	C294.176971,219.379013 281.649567,245.079117 278.747925,276.689514 
	C275.862518,263.163452 280.449097,251.004776 284.774414,238.640427 
	C280.489380,241.657715 279.225830,247.485046 273.552612,249.325684 
	C283.026031,233.140137 293.215515,217.267197 291.746216,197.171997 
	C295.663177,197.931732 295.244232,200.438156 295.670746,202.384949 
	C296.842743,207.734619 297.508820,208.050064 302.109955,205.439056 
	C304.345184,204.170609 306.564728,202.678879 309.963135,204.081985 
	C306.893799,207.219086 302.456635,206.722214 299.796753,209.334885 
	C301.629547,214.313095 302.880249,214.772491 306.757935,211.939728 
	C308.637268,210.566833 310.471008,209.131531 312.635193,207.532227 
M296.406433,213.391678 
	C291.037720,216.451035 293.148285,222.462952 290.784119,226.774765 
	C294.342896,225.286041 296.081360,222.268845 298.209778,219.617401 
	C300.238190,217.090561 299.882111,215.104126 296.406433,213.391678 
z"/>
<path fill="#000000" opacity="1.000000" stroke="none" 
	d="
M369.786011,244.142731 
	C368.982849,236.084457 365.492615,229.105728 364.218506,221.062317 
	C366.432037,221.882294 366.683289,223.532608 367.210388,224.957932 
	C374.296539,244.119751 374.860474,263.914429 372.797974,283.933075 
	C372.601868,285.836517 372.960541,287.534302 373.259338,289.326050 
	C375.092651,300.319702 373.690948,311.150970 371.434692,321.913086 
	C371.116760,323.429535 370.202423,324.820984 369.581085,326.231903 
	C367.573608,325.490417 368.493042,324.416809 368.566254,323.558136 
	C368.719604,321.759491 369.390106,319.686218 366.727325,319.185150 
	C364.391510,318.745667 362.937683,320.003296 362.156189,322.121796 
	C359.565918,329.143463 357.275116,336.247345 356.230621,343.695648 
	C356.142487,344.324280 355.882050,344.928741 355.682678,345.609314 
	C353.524475,345.042145 354.272675,343.556488 354.380219,342.372314 
	C355.432739,330.782898 359.778931,320.129089 363.934570,309.450989 
	C372.138214,288.371155 372.274933,266.603760 369.786011,244.142731 
z"/>
<path fill="#000000" opacity="1.000000" stroke="none" 
	d="
M430.451385,233.464996 
	C424.199738,215.406967 423.983673,197.895767 431.512054,180.523712 
	C434.036896,174.697464 437.058258,169.148285 440.740112,164.008575 
	C447.242157,154.932053 453.272919,145.584778 458.436127,135.674973 
	C459.702820,133.243805 460.955109,130.636292 463.801331,129.513412 
	C465.065155,130.947006 464.014313,131.867294 463.465057,132.779449 
	C456.259094,144.746338 448.949615,156.630493 441.153931,168.246201 
	C430.716339,183.798264 425.760406,201.029953 429.435089,219.885864 
	C430.829865,227.042877 433.330566,233.977921 434.926300,241.103897 
	C436.824982,249.582657 437.312592,258.444763 442.352234,266.079010 
	C438.126801,262.980865 436.055145,258.592834 434.876251,253.844635 
	C433.235016,247.234497 431.978516,240.528854 430.451385,233.464996 
z"/>
<path fill="#000000" opacity="1.000000" stroke="none" 
	d="
M796.447510,678.419922 
	C792.557739,655.296326 788.042480,632.774231 779.743164,610.770630 
	C784.969788,613.145447 788.724182,609.299438 792.893005,608.650085 
	C794.526306,610.452515 793.980042,611.978210 792.759155,613.277100 
	C788.232666,618.093018 787.322266,623.664124 789.045532,629.865540 
	C793.938782,647.474243 796.957581,665.488770 800.465942,683.392090 
	C801.242188,687.353394 802.346863,691.607239 799.903870,695.573303 
	C797.540100,690.173340 797.505554,684.420410 796.447510,678.419922 
z"/>
<path fill="#000000" opacity="1.000000" stroke="none" 
	d="
M406.235260,222.232574 
	C412.677338,230.559753 417.999542,239.509903 421.805206,249.369919 
	C423.854553,254.679413 425.091949,260.176361 426.164154,265.714447 
	C426.517029,267.536896 426.919189,269.606079 425.092316,272.193146 
	C422.936188,258.655640 418.735291,246.562820 411.701599,235.141663 
	C410.291016,235.888535 409.056519,237.614258 407.471283,235.436966 
	C402.885590,229.138626 397.444244,223.570938 391.931366,218.037857 
	C399.007233,219.403122 402.359741,225.303955 406.858521,229.862350 
	C403.115540,221.868027 395.781219,217.158234 389.757324,211.129990 
	C396.328064,212.450363 400.339447,217.576080 405.597168,221.676666 
	C405.972107,221.988022 406.235260,222.232574 406.235260,222.232574 
z"/>
<path fill="#000000" opacity="1.000000" stroke="none" 
	d="
M364.285736,251.144913 
	C364.917908,271.318787 361.185089,290.430420 356.385284,309.495483 
	C361.203094,277.239075 367.316101,245.013824 353.619720,213.254425 
	C357.988831,216.176056 363.601593,237.304352 364.285736,251.144913 
z"/>
<path fill="#000000" opacity="1.000000" stroke="none" 
	d="
M301.115051,237.710907 
	C300.140320,239.113281 299.294281,240.207138 298.286560,241.534241 
	C289.666016,250.915985 285.677124,262.275757 282.848480,275.443726 
	C278.578827,264.842651 295.425354,235.014526 307.703094,229.387482 
	C306.798737,233.388885 302.745636,234.414017 301.115051,237.710907 
z"/>
<path fill="#000000" opacity="1.000000" stroke="none" 
	d="
M331.834045,272.169922 
	C329.654846,271.740875 330.114227,269.956268 330.149719,268.634308 
	C330.608246,251.559525 330.490417,234.398727 336.880859,218.108795 
	C337.683228,216.063477 337.622833,216.039795 339.701172,213.860504 
	C340.559998,214.496490 340.268311,215.320847 339.986115,216.073364 
	C333.520935,233.311523 332.574188,251.333237 332.363800,269.463379 
	C332.354309,270.283997 332.158356,271.102417 331.834045,272.169922 
z"/>
<path fill="#000000" opacity="1.000000" stroke="none" 
	d="
M419.251373,234.544800 
	C417.592621,229.611557 415.897491,225.080353 414.673096,220.425339 
	C413.737793,216.869614 412.941864,213.096756 416.405853,209.728394 
	C417.137268,224.620514 422.880707,237.808762 429.303375,250.892365 
	C424.263489,246.552963 422.380493,240.389053 419.251373,234.544800 
z"/>
<path fill="#000000" opacity="1.000000" stroke="none" 
	d="
M622.756226,789.500977 
	C637.408875,787.277832 650.193481,781.139587 662.968201,774.968567 
	C649.405701,785.487061 633.938782,790.886414 616.875854,792.027771 
	C618.239929,790.104675 620.302368,789.849365 622.756226,789.500977 
z"/>
<path fill="#000000" opacity="1.000000" stroke="none" 
	d="
M337.390045,290.723816 
	C338.167725,304.284210 340.679901,317.104980 343.973297,330.292694 
	C338.038818,325.547119 332.505859,286.737366 336.467865,278.914520 
	C338.115356,282.823700 336.938934,286.623352 337.390045,290.723816 
z"/>
<path fill="#000000" opacity="1.000000" stroke="none" 
	d="
M345.673889,321.991638 
	C345.783875,315.469482 345.334747,309.405823 346.991577,303.428772 
	C348.321960,320.131378 347.525330,336.929810 351.309113,354.377869 
	C347.434387,350.255737 345.721863,339.149323 345.673889,321.991638 
z"/>
<path fill="#000000" opacity="1.000000" stroke="none" 
	d="
M371.272766,225.727417 
	C369.909363,222.695358 368.697388,220.014343 367.407562,217.161209 
	C376.376129,221.608032 382.150543,254.148911 379.609222,262.875183 
	C377.919434,250.367767 376.221161,237.862305 371.272766,225.727417 
z"/>
<path fill="#000000" opacity="1.000000" stroke="none" 
	d="
M710.134766,595.969421 
	C708.583984,593.399475 707.123596,591.201965 705.738098,588.958252 
	C704.705872,587.286621 703.479065,585.593750 704.957886,583.541748 
	C710.825317,585.170593 716.405457,596.811951 713.535583,601.445190 
	C710.905090,600.720703 711.126282,598.166138 710.134766,595.969421 
z"/>
<path fill="#000000" opacity="1.000000" stroke="none" 
	d="
M472.050964,127.230026 
	C480.212250,135.533157 483.293213,145.819931 486.997620,156.837692 
	C484.319611,156.268814 484.006317,155.205750 483.700989,154.322906 
	C480.581696,145.302612 476.748047,136.684097 470.581940,129.239426 
	C469.127930,127.483932 469.359772,127.291916 472.050964,127.230026 
z"/>
<path fill="#000000" opacity="1.000000" stroke="none" 
	d="
M408.848602,245.799713 
	C410.008972,244.209473 410.164825,244.114716 411.313080,246.003250 
	C415.979767,253.678528 420.254181,261.551392 421.292053,270.679016 
	C421.548859,272.937439 423.140045,275.300446 420.548767,278.812408 
	C419.081421,266.288666 414.922852,255.833344 408.848602,245.799713 
z"/>
<path fill="#000000" opacity="1.000000" stroke="none" 
	d="
M320.005371,221.068817 
	C323.012207,216.808243 326.366547,213.405807 330.798950,210.948196 
	C323.752930,219.276840 317.134369,227.865952 313.227264,238.219666 
	C312.143585,234.130234 313.953644,229.881210 320.005371,221.068817 
z"/>
<path fill="#000000" opacity="1.000000" stroke="none" 
	d="
M260.792328,271.788208 
	C264.563934,267.407654 268.090271,263.281494 271.867279,258.862030 
	C271.093323,264.601074 258.812073,278.474915 249.343643,283.297852 
	C253.078110,279.546112 256.812561,275.794373 260.792328,271.788208 
z"/>
<path fill="#000000" opacity="1.000000" stroke="none" 
	d="
M383.370544,230.909622 
	C385.179840,237.368896 386.727081,243.465317 386.235748,249.947281 
	C383.390350,240.675537 381.553284,231.144150 377.825043,222.129807 
	C381.387939,223.913376 382.075958,227.377686 383.370544,230.909622 
z"/>
<path fill="#000000" opacity="1.000000" stroke="none" 
	d="
M689.201599,796.236328 
	C686.397766,798.216187 684.494141,800.959412 680.693665,800.966003 
	C687.330261,795.501221 692.804688,788.812866 699.934387,783.861206 
	C697.583618,788.946716 693.207947,792.195740 689.201599,796.236328 
z"/>
<path fill="#000000" opacity="1.000000" stroke="none" 
	d="
M375.868896,201.978775 
	C382.739594,201.927933 389.137421,202.266327 394.332550,207.019501 
	C387.177795,205.783737 380.237701,203.507050 372.750916,204.333878 
	C373.137970,202.172379 374.574982,202.517944 375.868896,201.978775 
z"/>
<path fill="#000000" opacity="1.000000" stroke="none" 
	d="
M672.676880,724.248962 
	C679.172607,721.268982 682.112427,714.940491 687.402405,711.101257 
	C683.450867,717.654175 679.409180,724.103821 671.705261,727.074280 
	C670.504395,725.395264 671.699341,725.011230 672.676880,724.248962 
z"/>
<path fill="#000000" opacity="1.000000" stroke="none" 
	d="
M255.228943,270.232452 
	C253.120468,272.080902 251.281723,273.698792 249.442978,275.316681 
	C249.353348,275.221069 249.263718,275.125458 249.174103,275.029846 
	C254.500290,270.192230 259.826477,265.354645 265.152649,260.517059 
	C264.714569,260.071991 264.276459,259.626892 263.838348,259.181824 
	C262.693787,262.880524 261.673737,264.203979 255.228943,270.232452 
z"/>
<path fill="#000000" opacity="1.000000" stroke="none" 
	d="
M295.543030,235.958862 
	C294.073578,237.259827 292.749725,237.156296 293.672668,235.353851 
	C296.623077,229.591965 300.805267,224.856430 306.896820,222.046814 
	C303.356781,226.771988 298.608887,230.491058 295.543030,235.958862 
z"/>
<path fill="#000000" opacity="1.000000" stroke="none" 
	d="
M214.177917,379.688232 
	C216.977325,379.880981 219.483368,379.130066 222.953873,381.159119 
	C217.027573,382.662659 211.983139,381.698273 206.255051,384.163452 
	C208.456329,379.872467 211.302261,380.201172 214.177917,379.688232 
z"/>
<path fill="#000000" opacity="1.000000" stroke="none" 
	d="
M220.847610,355.943726 
	C222.365005,355.004608 223.452637,353.918243 225.752945,354.732941 
	C222.369980,357.804077 218.987030,360.875244 214.793518,364.682251 
	C214.544281,359.134277 218.550674,358.400177 220.847610,355.943726 
z"/>
<path fill="#000000" opacity="1.000000" stroke="none" 
	d="
M244.795532,339.130920 
	C245.918503,338.591400 246.509048,337.554626 248.370819,338.090851 
	C244.486282,342.482971 240.310104,345.824707 235.138184,347.967987 
	C237.484726,344.220367 241.152267,341.917236 244.795532,339.130920 
z"/>
<path fill="#000000" opacity="1.000000" stroke="none" 
	d="
M342.102478,199.752808 
	C343.575378,200.693222 345.304688,200.895279 345.482452,203.609039 
	C341.700378,203.078323 338.459778,201.942978 335.102753,199.730957 
	C337.618744,197.746246 339.698151,198.591507 342.102478,199.752808 
z"/>
<path fill="#000000" opacity="1.000000" stroke="none" 
	d="
M332.508850,936.562866 
	C331.506744,934.321655 331.405945,934.225159 332.689850,932.883606 
	C334.353058,931.145813 335.721375,928.959290 338.984955,928.246155 
	C337.412018,931.780212 335.287994,934.257751 332.508850,936.562866 
z"/>
<path fill="#000000" opacity="1.000000" stroke="none" 
	d="
M226.915009,740.199585 
	C228.504959,738.811340 228.626038,740.423767 228.806320,741.061340 
	C229.864685,744.804504 230.770142,748.590942 231.252609,752.522156 
	C227.773453,749.273132 227.829849,744.693237 226.915009,740.199585 
z"/>
<path fill="#000000" opacity="1.000000" stroke="none" 
	d="
M434.846771,267.367004 
	C437.534607,270.910919 440.016815,274.191193 442.498993,277.471466 
	C437.866028,274.055054 433.972534,270.057129 431.440338,264.829102 
	C432.725677,263.917664 432.963684,265.064697 433.427521,265.526520 
	C433.893433,265.990448 434.241455,266.572845 434.846771,267.367004 
z"/>
<path fill="#000000" opacity="1.000000" stroke="none" 
	d="
M247.187378,758.425842 
	C247.695648,759.567993 247.685028,760.389526 246.821899,760.872314 
	C246.167450,761.238342 245.326218,760.962219 245.194885,760.299011 
	C244.414841,756.359802 241.872772,752.830627 242.908493,748.370789 
	C244.281677,751.624084 245.654861,754.877441 247.187378,758.425842 
z"/>
<path fill="#000000" opacity="1.000000" stroke="none" 
	d="
M229.303680,719.959229 
	C231.839340,722.931274 232.498398,726.440491 231.714264,731.124451 
	C229.331314,727.243347 229.361282,723.667908 229.303680,719.959229 
z"/>
<path fill="#000000" opacity="1.000000" stroke="none" 
	d="
M405.838806,221.867645 
	C406.364990,219.504120 405.216827,216.441788 408.718262,215.035156 
	C410.251312,218.188812 408.859558,220.118607 406.523407,222.050903 
	C406.235260,222.232574 405.972107,221.988022 405.838806,221.867645 
z"/>
<path fill="#000000" opacity="1.000000" stroke="none" 
	d="
M313.722076,776.523315 
	C316.570068,777.210327 319.045135,777.991089 319.561127,780.952393 
	C320.015533,783.560181 322.769684,781.196594 323.694885,783.513977 
	C324.129517,785.114868 322.996460,786.849854 322.116425,788.597656 
	C319.927521,792.945068 318.310852,797.505859 318.067383,802.352905 
	C317.825134,807.175537 315.440399,809.226868 310.839050,809.292664 
	C303.836639,809.392700 298.081848,807.921021 294.601776,800.649109 
	C292.441132,796.134277 289.795593,792.100952 289.708923,786.815796 
	C289.652893,783.399597 287.230255,780.959839 284.088776,779.777466 
	C273.924316,775.951477 268.551178,767.521667 266.007416,758.083435 
	C262.384338,744.640503 263.868713,731.041931 269.818726,718.186646 
	C271.241943,715.111633 273.119415,712.404480 276.005127,710.515747 
	C282.755890,706.097229 288.743958,708.205444 291.629791,716.008667 
	C286.645050,717.906860 284.100403,725.647522 286.386871,732.885559 
	C288.050568,738.151978 291.125214,742.791931 293.930267,747.494141 
	C297.840851,754.049561 300.220062,760.996765 300.977173,768.589539 
	C301.681732,775.655396 304.384521,777.593445 311.392822,776.515747 
	C312.041718,776.416016 312.713898,776.467529 313.722076,776.523315 
z"/>
<path fill="#000000" opacity="1.000000" stroke="none" 
	d="
M379.600525,749.786133 
	C381.736176,746.163940 383.466980,742.699768 385.748779,739.647461 
	C389.967010,734.004822 390.413177,727.685547 389.765869,721.088135 
	C389.296814,716.307739 388.316986,715.611877 383.519470,716.292114 
	C384.606964,710.654846 390.151093,707.209045 395.606659,708.909790 
	C400.188446,710.338013 403.279297,713.569214 405.170288,717.841125 
	C410.044617,728.852905 411.839935,740.438538 411.174774,752.424561 
	C411.029388,755.044434 410.379517,757.750610 407.321106,758.074402 
	C401.404327,758.700928 398.942566,763.234009 396.475708,767.460876 
	C393.482391,772.589905 390.594208,777.478027 384.434265,779.384338 
	C381.560913,780.273560 381.285889,782.962524 381.273010,785.637573 
	C375.888275,786.797363 370.598969,788.234741 368.289642,780.957581 
	C367.861755,779.609192 366.518921,779.008545 365.002319,779.314758 
	C363.621002,779.593506 363.208191,780.687683 362.979980,781.870178 
	C362.484833,784.435608 362.029327,787.008606 361.529449,789.732239 
	C358.340057,787.012817 356.023804,777.825623 357.682831,774.746643 
	C359.710815,770.982788 363.177856,773.181641 364.966156,774.184265 
	C368.948181,776.417053 369.654785,774.963135 371.345917,771.496216 
	C374.717285,764.584778 376.148346,757.014893 379.600525,749.786133 
z"/>
<path fill="#000000" opacity="1.000000" stroke="none" 
	d="
M348.363312,781.323486 
	C347.460510,775.702209 347.892365,770.415222 349.043060,765.159485 
	C349.918243,770.677429 351.683075,776.211060 348.363312,781.323486 
z"/>
<path fill="#000000" opacity="1.000000" stroke="none" 
	d="
M340.061584,762.775513 
	C341.821289,766.743042 341.572327,775.348267 339.427826,779.725342 
	C337.667816,773.823120 339.722015,768.448669 340.061584,762.775513 
z"/>
<path fill="#000000" opacity="1.000000" stroke="none" 
	d="
M359.335205,762.479370 
	C358.681702,759.112793 358.312683,756.070190 359.907440,751.770874 
	C361.792419,756.344055 361.598755,759.804932 360.665802,763.339355 
	C360.273773,763.158447 359.881775,762.977478 359.335205,762.479370 
z"/>
<path fill="#000000" opacity="1.000000" stroke="none" 
	d="
M466.241364,685.300659 
	C466.435455,701.800049 461.723053,716.821045 456.104370,732.907227 
	C454.441772,729.782471 455.478333,728.063477 455.950562,726.516541 
	C460.073364,713.010498 463.378662,699.341553 464.798401,685.259216 
	C464.842163,684.825195 465.191254,684.421997 465.398041,684.004395 
	C465.666687,684.320312 465.935303,684.636230 466.241364,685.300659 
z"/>
<path fill="#000000" opacity="1.000000" stroke="none" 
	d="
M460.503296,693.407471 
	C460.088531,697.103760 459.502075,700.310547 457.359039,703.121399 
	C457.927368,691.066650 461.881866,679.465271 461.982208,667.351868 
	C463.760254,676.054321 462.596588,684.548706 460.503296,693.407471 
z"/>
<path fill="#000000" opacity="1.000000" stroke="none" 
	d="
M723.800720,414.795227 
	C723.228271,416.358612 722.257751,417.201630 721.039734,416.499054 
	C713.720703,412.277466 706.425964,413.527435 699.078857,416.334137 
	C698.694885,416.480835 698.155151,416.219910 697.629578,416.139862 
	C703.114685,408.394653 719.348755,407.400940 723.800720,414.795227 
z"/>
<path fill="#000000" opacity="1.000000" stroke="none" 
	d="
M705.679565,432.393311 
	C704.535339,431.311615 702.673340,431.565887 702.537231,428.401367 
	C707.871948,431.655029 713.927734,429.493347 719.249023,432.820404 
	C710.248962,437.504852 710.248962,437.504852 705.679565,432.393311 
z"/>
<path fill="#000000" opacity="1.000000" stroke="none" 
	d="
M634.090332,448.294861 
	C637.641296,448.083557 638.643311,452.759186 642.673706,452.920380 
	C643.238831,455.855530 641.709839,455.572083 639.988770,454.547485 
	C637.550598,453.095978 635.370728,451.339844 634.090332,448.294861 
z"/>
</svg>